TITLE:   160104_M6_B1_POESIA-QT CONFO IMAGE
FCM: NON-DROP FRAME
000001  BL                               V     C        00:00:00:00 00:01:46:05 00:59:50:00 01:01:36:05
000002  A016C006_150705_R6OT             V     C        03:21:51:21 03:21:53:10 01:01:36:05 01:01:37:18
*FROM CLIP NAME:  2A/1-3* (A)
000003  B016C014_150705_R0Y4             V     C        04:39:14:09 04:39:16:02 01:01:37:18 01:01:39:11
*FROM CLIP NAME:  2A/2-5 (B)
000004  B016C014_150705_R0Y4             V     C        04:39:33:18 04:39:35:22 01:01:39:11 01:01:41:15
*FROM CLIP NAME:  2A/2-5 (B)
000005  B017C002_150705_R0Y4             V     C        05:23:02:17 05:23:09:14 01:01:41:15 01:01:48:12
*FROM CLIP NAME:  2A/3-2 (B)
000006  BL                               V     C        00:00:00:00 00:00:15:06 01:01:48:12 01:02:03:18
000007  A049C003_150719_R6OT             V     C        04:08:45:10 04:08:46:06 01:02:03:18 01:02:04:14
*FROM CLIP NAME:  2C/4-3
000008  BL                               V     C        00:00:00:00 00:00:07:19 01:02:04:14 01:02:12:09
000009  B047C007_150719_R0Y4             V     C        04:43:58:01 04:44:02:06 01:02:12:09 01:02:16:14
*FROM CLIP NAME:  2C/6-1 (B)
000010  A049C005_150719_R6OT             V     C        04:32:50:15 04:32:55:15 01:02:16:14 01:02:21:14
*FROM CLIP NAME:  2C/5-2 (A)
000011  BL                               V     C        00:00:00:00 00:00:02:23 01:02:21:14 01:02:24:13
000012  B017C016_150705_R0Y4             V     C        08:32:54:22 08:32:57:20 01:02:24:13 01:02:27:11
*FROM CLIP NAME:  2B/3-1 (B)
000013  B018C002_150705_R0Y4             V     C        09:18:38:10 09:18:41:21 01:02:27:11 01:02:30:22
*FROM CLIP NAME:  2B/5-1 (B)
000014  A018C004_150705_R6OT             V     C        09:07:01:16 09:07:09:17 01:02:30:22 01:02:38:23
*FROM CLIP NAME:  2B/6-1 (A)
000015  BL                               V     C        00:00:00:00 00:00:48:09 01:02:38:23 01:03:27:08
000016  B044C007_150718_R0Y4             V     C        03:43:32:10 03:43:37:13 01:03:27:08 01:03:32:11
*FROM CLIP NAME:  3/1-2 (B)
000017  B044C010_150718_R0Y4             V     C        04:22:20:15 04:22:24:16 01:03:32:11 01:03:36:12
*FROM CLIP NAME:  3/2-3
000018  B044C007_150718_R0Y4             V     C        03:43:43:07 03:43:44:13 01:03:36:12 01:03:37:18
*FROM CLIP NAME:  3/1-2 (B)
000019  B044C010_150718_R0Y4             V     C        04:22:28:19 04:22:54:05 01:03:37:18 01:04:03:04
*FROM CLIP NAME:  3/2-3
000020  BL                               V     C        00:00:00:00 00:00:28:08 01:04:03:04 01:04:31:12
000021  B045C003_150718_R0Y4             V     C        06:37:48:19 06:38:03:00 01:04:31:12 01:04:45:17
*FROM CLIP NAME:  4/1-3 (B)
000022  A046C005_150718_R6OT             V     C        06:39:42:11 06:39:45:05 01:04:45:17 01:04:48:11
*FROM CLIP NAME:  4/1-3 (A)
000023  B045C003_150718_R0Y4             V     C        06:38:06:17 06:38:10:01 01:04:48:11 01:04:51:19
*FROM CLIP NAME:  4/1-3 (B)
000024  A047C003_150718_R6OT             V     C        08:13:58:14 08:14:25:19 01:04:51:19 01:05:19:00
*FROM CLIP NAME:  5/1-3 (A)
000025  B045C007_150718_R0Y4             V     C        08:12:48:11 08:12:54:23 01:05:19:00 01:05:25:12
*FROM CLIP NAME:  5/1-3 (B)
000026  A047C003_150718_R6OT             V     C        08:14:38:17 08:14:40:09 01:05:25:12 01:05:27:04
*FROM CLIP NAME:  5/1-3 (A)
000027  A047C004_150718_R6OT             V     C        08:21:34:12 08:21:36:12 01:05:27:04 01:05:29:04
*FROM CLIP NAME:  5/2-1 (A)
000028  A046C008_150718_R6OT             V     C        06:53:47:14 06:53:50:05 01:05:29:04 01:05:31:19
*FROM CLIP NAME:  4/3-2
000029  B041C005_150717_R0Y4             V     C        02:47:04:16 02:47:14:10 01:05:31:19 01:05:41:13
*FROM CLIP NAME:  6/1-5 (B)
000030  A043C004_150717_R6OT             V     C        02:30:43:07 02:31:07:20 01:05:41:13 01:06:06:02
*FROM CLIP NAME:  6/1-4 CUT (A)
000031  BL                               V     C        00:00:00:00 00:00:03:00 01:06:06:02 01:06:09:02
000032  A043C002_150717_R6OT             V     C        02:21:14:05 02:21:23:06 01:06:09:02 01:06:18:03
*FROM CLIP NAME:  6/1-2 (A)
000033  BL                               V     C        00:00:00:00 00:00:20:09 01:06:18:03 01:06:38:12
000034  B041C007_150717_R0Y4             V     C        03:18:43:05 03:18:50:22 01:06:38:12 01:06:46:05
*FROM CLIP NAME:  6/2-2 (B)
000035  A043C007_150717_R6OT             V     C        03:05:49:04 03:05:59:15 01:06:46:05 01:06:56:16
*FROM CLIP NAME:  6/2-2 (A)
000036  A043C008_150717_R6OT             V     C        03:20:33:11 03:20:40:10 01:06:56:16 01:07:03:15
*FROM CLIP NAME:  6/3-1 (A)
000037  B041C007_150717_R0Y4             V     C        03:19:22:12 03:19:30:23 01:07:03:15 01:07:12:02
*FROM CLIP NAME:  6/2-2 (B)
000038  B009C009_150703_R0Y4             V     C        01:00:33:19 01:00:38:02 01:07:12:02 01:07:16:09
*FROM CLIP NAME:  7+9/11-5 M
000039  A003C008_150701_R6OT             V     C        03:35:48:21 03:35:52:03 01:07:16:09 01:07:19:15
*FROM CLIP NAME:  7+9/1-8 (A)*
000040  A005C009_150701_R6OT             V     C        07:43:10:19 07:43:23:03 01:07:19:15 01:07:31:23
*FROM CLIP NAME:  7+9/7-2
000041  BL                               V     C        00:00:00:00 00:00:12:02 01:07:31:23 01:07:44:01
000042  A003C008_150701_R6OT             V     C        03:36:14:09 03:36:20:05 01:07:44:01 01:07:49:21
*FROM CLIP NAME:  7+9/1-8 (A)*
000043  A005C002_150701_R6OT             V     C        05:27:12:10 05:27:20:18 01:07:49:21 01:07:58:05
*FROM CLIP NAME:  7+9/4-4 CUT (A)*
000044  A004C002_150701_R6OT             V     C        04:24:53:00 04:24:56:07 01:07:58:05 01:08:01:12
*FROM CLIP NAME:  7+9/2-2 (A)
000045  A005C002_150701_R6OT             V     C        05:27:29:17 05:27:31:20 01:08:01:12 01:08:03:15
*FROM CLIP NAME:  7+9/4-4 CUT (A)*
000046  A005C007_150701_R6OT             V     C        07:22:56:13 07:23:00:16 01:08:03:15 01:08:07:18
*FROM CLIP NAME:  7+9/6-4*
000047  A003C008_150701_R6OT             V     C        03:36:40:12 03:36:53:12 01:08:07:18 01:08:20:18
*FROM CLIP NAME:  7+9/1-8 (A)*
000048  A005C002_150701_R6OT             V     C        05:27:55:05 05:27:57:04 01:08:20:18 01:08:22:17
*FROM CLIP NAME:  7+9/4-4 CUT (A)*
000049  A003C008_150701_R6OT             V     C        03:36:56:16 03:36:58:11 01:08:22:17 01:08:24:12
*FROM CLIP NAME:  7+9/1-8 (A)*
000050  A005C002_150701_R6OT             V     C        05:27:58:01 05:28:04:18 01:08:24:12 01:08:31:05
*FROM CLIP NAME:  7+9/4-4 CUT (A)*
000051  A004C004_150701_R6OT             V     C        04:44:39:22 04:44:42:04 01:08:31:05 01:08:33:11
*FROM CLIP NAME:  7+9/3-1 (A)
000052  A005C003_150701_R6OT             V     C        06:46:29:04 06:46:44:17 01:08:33:11 01:08:49:00
*FROM CLIP NAME:  7+9/5-1 (A)
000053  A004C003_150701_R6OT             V     C        04:31:30:00 04:31:34:19 01:08:49:00 01:08:53:19
*FROM CLIP NAME:  7+9/2-3 (A)
000054  A005C003_150701_R6OT             V     C        06:46:54:06 06:46:58:01 01:08:53:19 01:08:57:14
*FROM CLIP NAME:  7+9/5-1 (A)
000055  A004C003_150701_R6OT             V     C        04:31:40:08 04:31:43:21 01:08:57:14 01:09:01:03
*FROM CLIP NAME:  7+9/2-3 (A)
000056  A003C008_150701_R6OT             V     C        03:37:33:18 03:37:36:04 01:09:01:03 01:09:03:13
*FROM CLIP NAME:  7+9/1-8 (A)*
000057  BL                               V     C        00:00:00:00 00:01:09:06 01:09:03:13 01:10:12:19
000058  A006C008_150701_R6OT             V     C        09:31:42:02 09:31:50:02 01:10:12:19 01:10:20:19
*FROM CLIP NAME:  11/2-2 (A)*
000059  A006C010_150701_R6OT             V     C        09:47:54:10 09:48:00:04 01:10:20:19 01:10:26:13
*FROM CLIP NAME:  11/3-2
000060  BL                               V     C        00:00:00:00 00:00:03:08 01:10:26:13 01:10:29:21
000061  B047C011_150719_R0Y4             V     C        07:14:17:23 07:14:21:13 01:10:29:21 01:10:33:11
*FROM CLIP NAME:  12B/1-4 (B)
000062  A049C012_150719_R6OT             V     C        07:17:36:00 07:17:38:02 01:10:33:11 01:10:35:13
*FROM CLIP NAME:  12B/1-5 (A)
000063  B047C011_150719_R0Y4             V     C        07:14:27:15 07:14:35:15 01:10:35:13 01:10:43:13
*FROM CLIP NAME:  12B/1-4 (B)
000064  BL                               V     C        00:00:00:00 00:00:50:08 01:10:43:13 01:11:33:21
000065  A042C003_150716_R6OT             V     C        07:29:57:16 07:30:00:03 01:11:33:21 01:11:36:08
*FROM CLIP NAME:  8/2-1
000066  A011C001_150703_R6OT             V     C        03:12:53:08 03:12:54:19 01:11:36:08 01:11:37:19
*FROM CLIP NAME:  13/1-1 (A)
000067  B009C011_150703_R0Y4             V     C        02:52:13:14 02:52:17:19 01:11:37:19 01:11:42:00
*FROM CLIP NAME:  13/1-2 (B)
000068  BL                               V     C        00:00:00:00 00:00:03:14 01:11:42:00 01:11:45:14
000069  B010C004_150703_R0Y4             V     C        04:23:20:14 04:23:22:23 01:11:45:14 01:11:47:23
*FROM CLIP NAME:  13/2-7
000070  BL                               V     C        00:00:00:00 00:00:56:11 01:11:47:23 01:12:44:10
000071  A010C005_150702_R6OT             V     C        09:43:03:16 09:43:09:05 01:12:44:10 01:12:49:23
*FROM CLIP NAME:  14/3-1 (A)
000072  B010C004_150703_R0Y4             V     C        04:24:37:11 04:24:49:13 01:12:49:23 01:13:02:01
*FROM CLIP NAME:  13/2-7
000073  A011C005_150703_R6OT             V     C        08:00:54:18 08:01:01:15 01:13:02:01 01:13:08:22
*FROM CLIP NAME:  13/V4-1 (A)
000074  A010C004_150702_R6OT             V     C        09:25:51:01 09:25:54:22 01:13:08:22 01:13:12:19
*FROM CLIP NAME:  14/2-1 (A)*
000075  BL                               V     C        00:00:00:00 00:00:05:17 01:13:12:19 01:13:18:12
000076  B008C005_150702_R0Y4             V     C        09:17:20:08 09:17:22:08 01:13:18:12 01:13:20:12
*FROM CLIP NAME:  14/2-1 (B)*
000077  B011C002_150703_R0Y4             V     C        07:34:50:20 07:34:57:14 01:13:20:12 01:13:27:06
*FROM CLIP NAME:  13/V4-1 (B)
000078  A011C005_150703_R6OT             V     C        08:01:23:15 08:01:28:02 01:13:27:06 01:13:31:17
*FROM CLIP NAME:  13/V4-1 (A)
000079  B011C003_150703_R0Y4             V     C        08:50:19:11 08:50:27:06 01:13:31:17 01:13:39:12
*FROM CLIP NAME:  15A+17/1-1 (B)
000080  A011C010_150703_R6OT             V     C        09:30:39:08 09:30:46:03 01:13:39:12 01:13:46:07
*FROM CLIP NAME:  15A+17/2-2 (A)
000081  A041C003_150716_R6OT             V     C        02:44:27:20 02:44:29:16 01:13:46:07 01:13:48:03
*FROM CLIP NAME:  18/2-1 (A)
000082  BL                               V     C        00:00:00:00 00:00:04:19 01:13:48:03 01:13:52:22
000083  A011C010_150703_R6OT             V     C        09:31:06:14 09:31:21:16 01:13:52:22 01:14:08:00
*FROM CLIP NAME:  15A+17/2-2 (A)
000084  BL                               V     C        00:00:00:00 00:00:02:19 01:14:08:00 01:14:10:19
000085  A011C010_150703_R6OT             V     C        09:31:23:21 09:31:30:15 01:14:10:19 01:14:17:13
*FROM CLIP NAME:  15A+17/2-2 (A)
000086  B012C005_150703_R0Y4             V     C        09:59:22:21 09:59:38:07 01:14:17:13 01:14:32:23
*FROM CLIP NAME:  19A/1-5 (B)
000087  A012C005_150703_R6OT             V     C        10:26:16:03 10:26:19:05 01:14:32:23 01:14:36:01
*FROM CLIP NAME:  19A/1-5 (A)
000088  B012C004_150703_R0Y4             V     C        09:54:48:23 09:54:56:11 01:14:36:01 01:14:43:13
*FROM CLIP NAME:  19A/1-4 (B)
000089  A019C011_150707_R6OT             V     C        02:55:07:09 02:55:13:20 01:14:43:13 01:14:50:00
*FROM CLIP NAME:  20/2-9 (A)*
000090  B019C011_150707_R0Y4             V     C        02:50:40:14 02:50:42:08 01:14:50:00 01:14:51:18
*FROM CLIP NAME:  20/2-9 (B)*
000091  A019C011_150707_R6OT             V     C        02:55:15:22 02:55:18:20 01:14:51:18 01:14:54:16
*FROM CLIP NAME:  20/2-9 (A)*
000092  B019C011_150707_R0Y4             V     C        02:50:46:17 02:50:55:06 01:14:54:16 01:15:03:05
*FROM CLIP NAME:  20/2-9 (B)*
000093  A019C011_150707_R6OT             V     C        02:55:32:03 02:55:41:08 01:15:03:05 01:15:12:10
*FROM CLIP NAME:  20/2-9 (A)*
000094  B019C011_150707_R0Y4             V     C        02:51:08:01 02:51:10:04 01:15:12:10 01:15:14:13
*FROM CLIP NAME:  20/2-9 (B)*
000095  A019C011_150707_R6OT             V     C        02:55:43:11 02:55:50:11 01:15:14:13 01:15:21:13
*FROM CLIP NAME:  20/2-9 (A)*
000096  BL                               V     C        00:00:00:00 00:00:39:01 01:15:21:13 01:16:00:14
000097  B023C006_150708_R0Y4             V     C        02:08:02:16 02:08:14:08 01:16:00:14 01:16:12:06
*FROM CLIP NAME:  21R/7-3
000098  BL                               V     C        00:00:00:00 00:00:07:04 01:16:12:06 01:16:19:10
000099  A024C007_150708_R6OT             V     C        06:27:43:02 06:27:44:17 01:16:19:10 01:16:21:01
*FROM CLIP NAME:  21R/9-4
000100  B023C010_150708_R0Y4             V     C        01:56:19:18 01:56:24:04 01:16:21:01 01:16:25:11
*FROM CLIP NAME:  21R/10-4 (B)
000101  B023C011_150708_R0Y4             V     C        02:18:34:20 02:18:35:20 01:16:25:11 01:16:26:11
*FROM CLIP NAME:  21R/11-1 (B)
000102  A024C011_150708_R6OT             V     C        06:57:49:20 06:57:53:15 01:16:26:11 01:16:30:06
*FROM CLIP NAME:  21R/10-4 (A)
000103  B023C010_150708_R0Y4             V     C        01:56:31:17 01:56:32:15 01:16:30:06 01:16:31:04
*FROM CLIP NAME:  21R/10-4 (B)
000104  A024C012_150708_R6OT             V     C        07:20:03:06 07:20:05:03 01:16:31:04 01:16:33:01
*FROM CLIP NAME:  21R/11-1 (A)
000105  A024C011_150708_R6OT             V     C        06:58:08:21 06:58:17:15 01:16:33:01 01:16:41:19
*FROM CLIP NAME:  21R/10-4 (A)
000106  BL                               V     C        00:00:00:00 00:00:03:23 01:16:41:19 01:16:45:18
000107  B024C005_150708_R0Y4             V     C        03:12:39:14 03:12:53:05 01:16:45:18 01:16:59:09
*FROM CLIP NAME:  21R/13-5
000108  A025C007_150708_R6OT             V     C        09:02:03:19 09:02:07:03 01:16:59:09 01:17:02:17
*FROM CLIP NAME:  21R/14-4 (A)
000109  B024C009_150708_R0Y4             V     C        04:00:46:00 04:00:55:12 01:17:02:17 01:17:12:05
*FROM CLIP NAME:  21R/14-4 (B)
000110  BL                               V     C        00:00:00:00 00:00:05:23 01:17:12:05 01:17:18:04
000111  B024C009_150708_R0Y4             V     C        04:01:02:19 04:01:06:04 01:17:18:04 01:17:21:13
*FROM CLIP NAME:  21R/14-4 (B)
000112  A026C002_150709_R6OT             V     C        01:18:20:14 01:18:25:02 01:17:21:13 01:17:26:01
*FROM CLIP NAME:  22/1-2 (A)
000113  A026C008_150709_R6OT             V     C        03:59:12:10 03:59:13:20 01:17:26:01 01:17:27:11
*FROM CLIP NAME:  23/2-2 (A)
000114  B025C007_150709_R0Y4             V     C        03:50:44:18 03:50:47:13 01:17:27:11 01:17:30:06
*FROM CLIP NAME:  23/2-2 (B)
000115  A026C007_150709_R6OT             V     C        03:54:02:07 03:54:05:01 01:17:30:06 01:17:33:00
*FROM CLIP NAME:  23/2-1 (A)
000116  B025C005_150709_R0Y4             V     C        03:28:38:10 03:28:39:11 01:17:33:00 01:17:34:01
*FROM CLIP NAME:  23/1-2 (B)
000117  BL                               V     C        00:00:00:00 00:00:04:14 01:17:34:01 01:17:38:15
000118  B025C005_150709_R0Y4             V     C        03:29:08:08 03:29:14:00 01:17:38:15 01:17:44:07
*FROM CLIP NAME:  23/1-2 (B)
000119  A026C006_150709_R6OT             V     C        03:37:42:23 03:37:47:10 01:17:44:07 01:17:48:18
*FROM CLIP NAME:  23/1-2 (A)
000120  B025C005_150709_R0Y4             V     C        03:29:21:17 03:29:24:10 01:17:48:18 01:17:51:11
*FROM CLIP NAME:  23/1-2 (B)
000121  A026C006_150709_R6OT             V     C        03:37:53:13 03:37:55:12 01:17:51:11 01:17:53:10
*FROM CLIP NAME:  23/1-2 (A)
000122  B025C005_150709_R0Y4             V     C        03:29:38:08 03:29:40:21 01:17:53:10 01:17:55:23
*FROM CLIP NAME:  23/1-2 (B)
000123  A026C002_150709_R6OT             V     C        01:18:30:07 01:18:34:08 01:17:55:23 01:18:00:00
*FROM CLIP NAME:  22/1-2 (A)
000124  A026C003_150709_R6OT             V     C        01:39:23:22 01:39:26:13 01:18:00:00 01:18:02:15
*FROM CLIP NAME:  24/1-1 (A)
000125  B025C003_150709_R0Y4             V     C        01:30:59:23 01:31:01:21 01:18:02:15 01:18:04:13
*FROM CLIP NAME:  24/1-1 (B)
000126  A027C006_150709_R6OT             V     C        07:49:45:15 07:49:53:08 01:18:04:13 01:18:12:06
*FROM CLIP NAME:  24A/1-6 (A)
000127  B026C010_150709_R0Y4             V     C        07:41:25:20 07:41:26:19 01:18:12:06 01:18:13:05
*FROM CLIP NAME:  24A/1-6 (B)
000128  A027C006_150709_R6OT             V     C        07:49:57:20 07:49:59:07 01:18:13:05 01:18:14:16
*FROM CLIP NAME:  24A/1-6 (A)
000129  B026C010_150709_R0Y4             V     C        07:41:31:22 07:41:33:09 01:18:14:16 01:18:16:03
*FROM CLIP NAME:  24A/1-6 (B)
000130  B026C012_150709_R0Y4             V     C        08:45:34:23 08:45:38:11 01:18:16:03 01:18:19:15
*FROM CLIP NAME:  24B/1-2 (B)
000131  A027C008_150709_R6OT             V     C        08:54:07:20 08:54:11:14 01:18:19:15 01:18:23:09
*FROM CLIP NAME:  24B/1-2 (A)
000132  B026C012_150709_R0Y4             V     C        08:45:42:16 08:45:43:21 01:18:23:09 01:18:24:14
*FROM CLIP NAME:  24B/1-2 (B)
000133  A027C008_150709_R6OT             V     C        08:54:12:14 08:54:14:10 01:18:24:14 01:18:26:10
*FROM CLIP NAME:  24B/1-2 (A)
000134  A028C001_150709_R6OT             V     C        09:14:43:16 09:14:44:06 01:18:26:10 01:18:27:00
*FROM CLIP NAME:  24B/3-1 (A)
000135  B027C001_150709_R0Y4             V     C        09:06:16:03 09:06:19:17 01:18:27:00 01:18:30:14
*FROM CLIP NAME:  24B/3-1 (B)
000136  A027C008_150709_R6OT             V     C        08:54:18:09 08:54:19:10 01:18:30:14 01:18:31:15
*FROM CLIP NAME:  24B/1-2 (A)
000137  B026C012_150709_R0Y4             V     C        08:45:50:14 08:45:51:13 01:18:31:15 01:18:32:14
*FROM CLIP NAME:  24B/1-2 (B)
000138  B027C002_150709_R0Y4             V     C        09:11:44:09 09:11:55:11 01:18:32:14 01:18:43:16
*FROM CLIP NAME:  24B/3-2
