TITLE:   151210_TEST CONFO AVEC RIP
FCM: NON-DROP FRAME
000001  START                            V     C        01:00:00:00 01:00:00:01 00:59:50:00 00:59:50:01
*EFF2_BLEND_GRAPHIC
*FROM CLIP NAME:  START
000002  BL                               V     C        00:00:00:00 00:00:07:23 00:59:50:01 00:59:58:00
000003  1000                             V     C        01:00:00:00 01:00:00:01 00:59:58:00 00:59:58:01
*EFF2_BLEND_GRAPHIC
*FROM CLIP NAME:  1000
000004  BL                               V     C        00:00:00:00 00:00:01:22 00:59:58:01 00:59:59:23
000005  PI                               V     C        01:00:00:00 01:00:00:01 00:59:59:23 01:00:00:00
*EFF2_BLEND_GRAPHIC
*FROM CLIP NAME:  PI
000006  A043C004_150717_R6OT             V     C        02:30:43:07 02:31:07:20 01:00:00:00 01:00:24:13
*FROM CLIP NAME:  6/1-4 CUT (A)
000007  A043C008_150717_R6OT             V     C        03:20:33:11 03:20:40:10 01:00:24:13 01:00:31:12
*FROM CLIP NAME:  6/3-1 (A)
000008  A086C003_150807_R6OT             V     C        03:36:38:15 03:37:19:10 01:00:31:12 01:01:12:07
*FROM CLIP NAME:  75A/5-1 (A)
000009  B083R0Y4                         V     C        08:06:39:13 08:07:27:00 01:01:12:07 01:01:59:18
*FROM CLIP NAME:  PSF_076_010_V01_700774
000010  B088C007_150811_R0Y4             V     C        01:07:22:12 01:08:27:21 01:01:59:18 01:03:05:03
*FROM CLIP NAME:  86A/2-4 (B)
000011  A095C007_150811_R6OT             V     C        02:32:15:03 02:32:24:07 01:03:05:03 01:03:14:07
*EFF2_SBLEND
*FROM CLIP NAME:  86A/2-4 (A)
000012  B100C002_150816_R0Y4             V     C        07:21:13:03 07:21:40:16 01:03:14:07 01:03:41:20
*EFF2_SBLEND
*FROM CLIP NAME:  90A/2-4 CUT (B)
000013  A105C006_150816_R6OT             V     C        04:19:52:12 04:19:53:21 01:03:41:20 01:03:43:05
*EFF2_SBLEND
*FROM CLIP NAME:  90C/1-3
000014  A105C006_150816_R6OT             V     C        04:20:31:18 04:20:50:09 01:03:43:05 01:04:02:09
M2      A105C006_150816_R6OT                      023.3 04:20:31:18
*TIMEWARP EFFECT AT SEQUENCE TC 01:03:43:05.
*EFF2_SBLEND
*FROM CLIP NAME:  90C/1-3
000015  B087C002_150810_R0Y4             V     C        05:20:57:09 05:21:01:18 01:04:02:09 01:04:06:18
*EFF2_SBLEND
*FROM CLIP NAME:  91/1-2 (B)
000016  DI                               V     C        01:00:00:00 01:00:00:01 01:04:06:18 01:04:06:19
*EFF2_BLEND_GRAPHIC
*FROM CLIP NAME:  DI
000017  BL                               V     C        00:00:00:00 00:00:01:22 01:04:06:19 01:04:08:17
000018  1000                             V     C        01:00:00:00 01:00:00:01 01:04:08:17 01:04:08:18
*EFF2_BLEND_GRAPHIC
*FROM CLIP NAME:  1000
